<?xml version="1.0" encoding="iso-8859-1"?>
<!-- Generator: Adobe Illustrator 19.0.0, SVG Export Plug-In . SVG Version: 6.00 Build 0)  -->
<svg version="1.1" id="Layer_1" xmlns="http://www.w3.org/2000/svg" xmlns:xlink="http://www.w3.org/1999/xlink" x="0px" y="0px"
	 viewBox="0 0 513.28 513.28" style="enable-background:new 0 0 513.28 513.28;" xml:space="preserve">
<g transform="translate(1 1)">
	<g>
		<g>
			<path d="M255.64,67.907c-103.253,0-187.733,84.48-187.733,187.733s84.48,187.733,187.733,187.733s187.733-84.48,187.733-187.733
				S358.893,67.907,255.64,67.907z M255.64,426.307c-93.867,0-170.667-76.8-170.667-170.667s76.8-170.667,170.667-170.667
				s170.667,76.8,170.667,170.667S349.507,426.307,255.64,426.307z"/>
			<path d="M491.16,333.293c-4.267-1.707-9.387,0.853-11.093,5.12c-11.947,32.427-30.72,61.44-55.467,86.187
				c-3.413,3.413-3.413,8.533,0,11.947c1.707,1.707,3.413,2.56,5.973,2.56s4.267-0.853,5.973-1.707
				c27.307-26.453,46.933-58.027,59.733-93.013C497.987,340.12,495.427,335,491.16,333.293z"/>
			<path d="M506.52,202.733c-0.853-5.12-5.973-7.68-10.24-6.827c-5.12,0.853-7.68,5.973-6.827,10.24
				c6.827,33.28,6.827,66.56,0,98.987c-0.853,5.12,2.56,9.387,6.827,10.24c0.853,0,0.853,0,1.707,0c3.413,0,7.68-2.56,8.533-6.827
				C514.2,273.56,514.2,237.72,506.52,202.733z"/>
			<path d="M480.067,172.867c0.853,3.413,4.267,5.973,7.68,5.973c0.853,0,2.56,0,3.413,0c4.267-1.707,6.827-6.827,5.12-11.093
				c-13.653-34.987-33.28-66.56-59.733-93.013c-3.413-3.413-8.533-3.413-11.947,0s-3.413,8.533,0,11.947
				C449.347,111.427,468.12,140.44,480.067,172.867z"/>
			<path d="M31.213,337.56c-1.707-4.267-6.827-6.827-11.093-5.12c-4.267,1.707-6.827,6.827-5.12,11.093
				c12.8,34.987,33.28,66.56,59.733,93.013c1.707,1.707,3.413,2.56,5.973,2.56s4.267-0.853,5.973-3.413
				c3.413-3.413,3.413-8.533,0-11.947C61.933,399,43.16,369.987,31.213,337.56z"/>
			<path d="M21.827,305.133c-6.827-32.427-6.827-66.56,0-98.987c0.853-5.12-1.707-9.387-6.827-10.24s-9.387,2.56-10.24,6.827
				c-7.68,34.987-7.68,70.827,0,105.813c0.853,4.267,4.267,6.827,8.533,6.827c0.853,0,1.707,0,1.707,0
				C20.12,314.52,22.68,309.4,21.827,305.133z"/>
			<path d="M20.973,177.987c0.853,0.853,1.707,0.853,2.56,0.853c3.413,0,6.827-2.56,7.68-5.973
				c11.947-32.427,30.72-61.44,56.32-87.04c3.413-3.413,3.413-8.533,0-11.947c-3.413-3.413-8.533-3.413-11.947,0
				c-27.307,26.453-46.933,58.027-59.733,93.013C14.147,171.16,16.707,176.28,20.973,177.987z"/>
			<path d="M264.173,153.24h-25.6c-5.12,0-8.533,3.413-8.533,8.533v102.4v102.4c0,5.12,3.413,8.533,8.533,8.533
				s8.533-3.413,8.533-8.533v-93.867h17.067c33.28,0,59.733-26.453,59.733-59.733C323.907,179.693,297.453,153.24,264.173,153.24z
				 M264.173,255.64h-17.067v-85.333h17.067c23.893,0,42.667,18.773,42.667,42.667C306.84,236.867,288.067,255.64,264.173,255.64z"
				/>
		</g>
	</g>
</g>
<g>
</g>
<g>
</g>
<g>
</g>
<g>
</g>
<g>
</g>
<g>
</g>
<g>
</g>
<g>
</g>
<g>
</g>
<g>
</g>
<g>
</g>
<g>
</g>
<g>
</g>
<g>
</g>
<g>
</g>
</svg>
