<svg width="615" height="270" xmlns="http://www.w3.org/2000/svg">
 <!-- Created with Method Draw - http://github.com/duopixel/Method-Draw/ -->

 <g>
  <title>background</title>
  <rect x="-1" y="-1" width="617" height="272" id="canvas_background" fill="#fff"/>
  <g id="canvasGrid" display="none">
   <rect id="svg_1" width="100%" height="100%" x="0" y="0" stroke-width="0" fill="url(#gridpattern)"/>
  </g>
 </g>
 <g>
  <title>Layer 1</title>
  <g id="svg_115" stroke="null">
   <g id="svg_104" transform="matrix(0.6648465098104666,0,0,0.6320417678734321,-1351.286204978406,-906.920197541721) " stroke="null">
    <path id="svg_113" d="m2504.96054,1814.3034l-401.981,0c-28.556,0 -51.788,-23.232 -51.788,-51.788l0,-264.424c0,-28.556 23.232,-51.788 51.788,-51.788l401.98,0c28.556,0 51.788,23.232 51.788,51.788l0,264.424c0.001,28.556 -23.232,51.788 -51.787,51.788zm-401.981,-338c-12.014,0 -21.788,9.774 -21.788,21.788l0,264.424c0,12.014 9.774,21.788 21.788,21.788l401.98,0c12.014,0 21.788,-9.774 21.788,-21.788l0,-264.424c0,-12.014 -9.774,-21.788 -21.788,-21.788l-401.98,0z" stroke="null"/>
    <path id="svg_112" d="m2504.96054,1446.3034l-401.981,0c-28.558,0 -51.79,23.233 -51.79,51.79l0,264.42c0,28.558 23.232,51.79 51.79,51.79l401.98,0c28.558,0 51.79,-23.232 51.79,-51.79l0,-264.42c0.001,-28.557 -23.232,-51.79 -51.789,-51.79z" fill="#95E8C8" stroke="null"/>
    <path id="svg_111" d="m2504.96054,1446.3034l-202.658,0l0,368l202.657,0c28.558,0 51.79,-23.232 51.79,-51.79l0,-264.42c0.001,-28.557 -23.232,-51.79 -51.789,-51.79z" fill="#5DC694" stroke="null"/>
    <path id="svg_110" d="m2354.22654,1671.9974c-3.859,0 -7.717,-1.479 -10.649,-4.437c-5.834,-5.882 -5.796,-15.379 0.086,-21.213c9.241,-9.167 9.381,-24.063 0.312,-33.207c-5.834,-5.882 -5.796,-15.379 0.086,-21.213c5.881,-5.834 15.379,-5.794 21.213,0.086c20.719,20.889 20.502,54.816 -0.483,75.633c-2.926,2.901 -6.747,4.351 -10.565,4.351z" fill="#9CA2B5" stroke="null"/>
    <path id="svg_109" d="m2395.94454,1696.1484c-3.859,0 -7.717,-1.479 -10.649,-4.437c-5.834,-5.882 -5.796,-15.379 0.086,-21.213c22.774,-22.591 23.073,-59.347 0.667,-81.936c-5.834,-5.882 -5.796,-15.379 0.086,-21.213s15.378,-5.797 21.213,0.086c34.056,34.333 33.68,90.121 -0.839,124.361c-2.925,2.903 -6.746,4.352 -10.564,4.352z" fill="#9CA2B5" stroke="null"/>
    <path id="svg_108" d="m2431.05254,1732.7994c-3.859,0 -7.717,-1.479 -10.649,-4.437c-5.834,-5.882 -5.796,-15.379 0.086,-21.213c43.251,-42.901 43.792,-112.733 1.206,-155.666c-5.834,-5.882 -5.796,-15.379 0.086,-21.213s15.378,-5.795 21.213,0.086c54.235,54.678 53.617,143.541 -1.378,198.092c-2.925,2.902 -6.745,4.351 -10.564,4.351z" fill="#9CA2B5" stroke="null"/>
    <path id="svg_107" d="m2268.16754,1555.5114l-138.904,0c-8.284,0 -15,-6.716 -15,-15s6.716,-15 15,-15l138.903,0c8.284,0 15,6.716 15,15s-6.715,15 -14.999,15z" fill="#707789" stroke="null"/>
    <path id="svg_106" d="m2198.71454,1613.9234l-63.745,0c-8.284,0 -15,-6.716 -15,-15s6.716,-15 15,-15l63.745,0c8.284,0 15,6.716 15,15s-6.715,15 -15,15z" fill="#707789" stroke="null"/>
    <path id="svg_105" d="m2148.25054,1692.6214l-82.061,0c-8.284,0 -15,6.716 -15,15l0,54.893c0,28.603 23.187,51.79 51.79,51.79l60.271,0l0,-106.683c0,-8.285 -6.716,-15 -15,-15z" fill="#9BC5FF" stroke="null"/>
   </g>
  </g>
  <g stroke="null" id="svg_140">
   <g stroke="null" id="svg_120" transform="matrix(0.46674710771046357,0,0,0.47872316135158133,-694.539996444917,-540.519546162724) ">
    <path stroke="null" d="m2779.50483,1404.0525c0,121.946 -89.094,223.083 -205.74,241.871c-15.974,-67.742 -76.436,-115.606 -146.036,-115.606l-103.224,0c-22.219,-36.874 -35,-80.077 -35,-126.265c0,-135.181 109.482,-244.792 244.615,-245c135.042,-0.207 245.385,109.958 245.385,245z" fill="#6dc54a" id="svg_121"/>
    <path stroke="null" d="m2507.78383,1537.0985l-57.433,-127.677c-3.398,-7.555 -0.029,-16.435 7.526,-19.833l191.516,-86.149c7.555,-3.398 16.435,-0.029 19.833,7.526l57.433,127.677c3.398,7.555 0.029,16.435 -7.526,19.833l-191.516,86.149c-7.555,3.399 -16.435,0.029 -19.833,-7.526z" fill="#97d57e" id="svg_122"/>
    <path stroke="null" d="m2524.57283,1556.5105l-32.304,-136.222c-1.912,-8.061 3.073,-16.145 11.134,-18.056l204.333,-48.457c8.061,-1.912 16.145,3.073 18.056,11.134l32.304,136.222c1.912,8.061 -3.073,16.145 -11.134,18.056l-204.333,48.457c-8.06,1.911 -16.144,-3.074 -18.056,-11.134z" fill="#c0e6b1" id="svg_123"/>
    <path stroke="null" d="m2393.50483,1148.0525c-8.284,0 -15,6.716 -15,15l0,396.919c0,12.972 -15.931,19.1 -24.694,9.536c-11.014,-12.022 -20.844,-25.147 -29.306,-39.19l0,-292.265l-3,0c-4.418,0 -8,-3.582 -8,-8l0,-34c0,-4.418 3.582,-8 8,-8l3,0l0,-25c0,-8.284 6.716,-15 15,-15l54,0z" fill="#453d83" id="svg_124"/>
    <path stroke="null" d="m2574.50483,1238.0525l0,20l1,0c4.418,0 8,3.582 8,8l0,34c0,4.418 -3.582,8 -8,8l-1,0l0,337c-0.267,0.315 -0.473,0.557 -0.74,0.871c-12.783,2.059 -25.897,3.129 -39.26,3.129c-62.103,0 -118.81,-23.107 -161.991,-61.192c-5.702,-5.029 -9.009,-12.237 -9.009,-19.84l0,-404.968c0,-8.284 6.716,-15 15,-15l181,0c8.284,0 15,6.716 15,15l0,25l1,0c4.418,0 8,3.582 8,8l0,34c0,4.418 -3.582,8 -8,8l-1,0z" fill="#5f55af" id="svg_125"/>
    <path stroke="null" d="m2545.50483,1258.0525l0,315c0,8.284 -6.716,15 -15,15l-157.773,0c-6.749,-5.938 -13.168,-12.242 -19.227,-18.88l0,-311.12c0,-8.284 6.716,-15 15,-15l162,0c8.284,0 15,6.716 15,15z" fill="#fff5f5" id="svg_126"/>
    <path stroke="null" d="m2353.50483,1258.0525l0,-45c0,-8.284 6.716,-15 15,-15l162,0c8.284,0 15,6.716 15,15l0,45l-192,0z" fill="#ffc14f" id="svg_127"/>
    <path stroke="null" d="m2477.00483,1180.5525l-26,0c-4.142,0 -7.5,-3.358 -7.5,-7.5c0,-4.142 3.358,-7.5 7.5,-7.5l26,0c4.142,0 7.5,3.358 7.5,7.5c0,4.142 -3.358,7.5 -7.5,7.5zm-47.5,-7.5c0,-4.142 -3.358,-7.5 -7.5,-7.5c-4.142,0 -7.5,3.358 -7.5,7.5c0,4.142 3.358,7.5 7.5,7.5c4.142,0 7.5,-3.358 7.5,-7.5zm34,435l-30,0c-7.261,0 -13.317,5.16 -14.702,12.012c13.582,7.29 27.931,13.337 42.894,17.988l1.808,0c8.284,0 15,-6.716 15,-15c0,-8.284 -6.716,-15 -15,-15z" fill="#19305c" id="svg_128"/>
    <path stroke="null" d="m2470.50483,1236.0525l-84,0c-4.418,0 -8,-3.582 -8,-8c0,-4.418 3.582,-8 8,-8l84,0c4.418,0 8,3.582 8,8c0,4.418 -3.582,8 -8,8z" fill="#f29500" id="svg_129"/>
    <path stroke="null" d="m2503.50483,1378.0525l-110,0c-8.284,0 -15,-6.716 -15,-15l0,-60c0,-8.284 6.716,-15 15,-15l110,0c8.284,0 15,6.716 15,15l0,60c0,8.284 -6.716,15 -15,15z" fill="#f44545" id="svg_130"/>
    <path stroke="null" d="m2418.50483,1310.0525c0,4.418 -3.582,8 -8,8l-14,0c-4.418,0 -8,-3.582 -8,-8s3.582,-8 8,-8l14,0c4.418,0 8,3.582 8,8zm32,-8l-14,0c-4.418,0 -8,3.582 -8,8s3.582,8 8,8l14,0c4.418,0 8,-3.582 8,-8s-3.582,-8 -8,-8zm50,0l-24,0c-4.418,0 -8,3.582 -8,8c0,4.418 3.582,8 8,8l24,0c4.418,0 8,-3.582 8,-8c0,-4.418 -3.582,-8 -8,-8z" fill="#c50048" id="svg_131"/>
    <path stroke="null" d="m2440.50483,1501.0525l-54,0c-4.418,0 -8,-3.582 -8,-8c0,-4.418 3.582,-8 8,-8l54,0c4.418,0 8,3.582 8,8c0,4.418 -3.582,8 -8,8zm105,-83l-192,0l0,50l192,0l0,-50zm0,150l-192,0l0,-50l192,0l0,50z" fill="#c8e2fd" id="svg_132"/>
    <path stroke="null" d="m2470.50483,1451.0525l-84,0c-4.418,0 -8,-3.582 -8,-8c0,-4.418 3.582,-8 8,-8l84,0c4.418,0 8,3.582 8,8c0,4.418 -3.582,8 -8,8zm-2,92c0,-4.418 -3.582,-8 -8,-8l-74,0c-4.418,0 -8,3.582 -8,8c0,4.418 3.582,8 8,8l74,0c4.418,0 8,-3.582 8,-8z" fill="#86befb" id="svg_133"/>
    <path stroke="null" d="m2748.50483,1630.0525l-220,0c-16.569,0 -30,-13.431 -30,-30l0,-154c0,-16.569 13.431,-30 30,-30l220,0c16.569,0 30,13.431 30,30l0,154c0,16.569 -13.431,30 -30,30z" fill="#ffc14f" id="svg_134"/>
    <path stroke="null" d="m2562.91183,1630.0525l-34.407,0c-16.569,0 -30,-13.432 -30,-30l0,-154c0,-16.568 13.431,-30 30,-30l34.407,0c-16.569,0 -30,13.432 -30,30l0,154c0,16.568 13.431,30 30,30z" fill="#ffa90b" id="svg_135"/>
    <path stroke="null" d="m2790.50483,1523.0525c0,16.569 -13.431,30 -30,30l-102,0c-16.569,0 -30,-13.431 -30,-30c0,-16.569 13.431,-30 30,-30l102,0c16.569,0 30,13.431 30,30z" fill="#f44545" id="svg_136"/>
    <path stroke="null" d="m2688.50483,1553.0525l-30,0c-16.569,0 -30,-13.432 -30,-30c0,-16.568 13.431,-30 30,-30l30,0c-16.569,0 -30,13.432 -30,30c0,16.568 13.431,30 30,30z" fill="#c50048" id="svg_137"/>
    <path stroke="null" d="m2458.50483,1353.0525c0,8.284 -6.716,15 -15,15s-15,-6.716 -15,-15s6.716,-15 15,-15s15,6.716 15,15z" fill="#ffe7c0" id="svg_138"/>
    <path stroke="null" d="m2418.50483,1353.0525c0,8.284 -6.716,15 -15,15s-15,-6.716 -15,-15s6.716,-15 15,-15s15,6.716 15,15zm360,170c0,8.284 -6.716,15 -15,15s-15,-6.716 -15,-15s6.716,-15 15,-15s15,6.716 15,15z" fill="#fff36c" id="svg_139"/>
   </g>
  </g>
 </g>
</svg>