<svg width="640" height="480" xmlns="http://www.w3.org/2000/svg">
 <!-- Created with Method Draw - http://github.com/duopixel/Method-Draw/ -->

 <g>
  <title>background</title>
  <rect fill="#fff" id="canvas_background" height="482" width="642" y="-1" x="-1"/>
  <g display="none" overflow="visible" y="0" x="0" height="100%" width="100%" id="canvasGrid">
   <rect fill="url(#gridpattern)" stroke-width="0" y="0" x="0" height="100%" width="100%"/>
  </g>
 </g>
 <g>
  <title>Layer 1</title>
  <g stroke="null" id="svg_115">
   <g stroke="null" transform="matrix(0.6648465098104666,0,0,0.6320417678734321,-1351.286204978406,-906.920197541721) " id="svg_104">
    <path stroke="null" d="m2523.00982,1947.206l-401.981,0c-28.556,0 -51.788,-23.232 -51.788,-51.788l0,-264.424c0,-28.556 23.232,-51.788 51.788,-51.788l401.98,0c28.556,0 51.788,23.232 51.788,51.788l0,264.424c0.001,28.556 -23.232,51.788 -51.787,51.788zm-401.981,-338c-12.014,0 -21.788,9.774 -21.788,21.788l0,264.424c0,12.014 9.774,21.788 21.788,21.788l401.98,0c12.014,0 21.788,-9.774 21.788,-21.788l0,-264.424c0,-12.014 -9.774,-21.788 -21.788,-21.788l-401.98,0z" id="svg_113"/>
    <path stroke="null" fill="#95E8C8" d="m2523.00982,1579.206l-401.981,0c-28.558,0 -51.79,23.233 -51.79,51.79l0,264.42c0,28.558 23.232,51.79 51.79,51.79l401.98,0c28.558,0 51.79,-23.232 51.79,-51.79l0,-264.42c0.001,-28.557 -23.232,-51.79 -51.789,-51.79z" id="svg_112"/>
    <path stroke="null" fill="#5DC694" d="m2523.00982,1579.206l-202.658,0l0,368l202.657,0c28.558,0 51.79,-23.232 51.79,-51.79l0,-264.42c0.001,-28.557 -23.232,-51.79 -51.789,-51.79z" id="svg_111"/>
    <path stroke="null" fill="#9CA2B5" d="m2372.27582,1804.9c-3.859,0 -7.717,-1.479 -10.649,-4.437c-5.834,-5.882 -5.796,-15.379 0.086,-21.213c9.241,-9.167 9.381,-24.063 0.312,-33.207c-5.834,-5.882 -5.796,-15.379 0.086,-21.213c5.881,-5.834 15.379,-5.794 21.213,0.086c20.719,20.889 20.502,54.816 -0.483,75.633c-2.926,2.901 -6.747,4.351 -10.565,4.351z" id="svg_110"/>
    <path stroke="null" fill="#9CA2B5" d="m2413.99382,1829.051c-3.859,0 -7.717,-1.479 -10.649,-4.437c-5.834,-5.882 -5.796,-15.379 0.086,-21.213c22.774,-22.591 23.073,-59.347 0.667,-81.936c-5.834,-5.882 -5.796,-15.379 0.086,-21.213s15.378,-5.797 21.213,0.086c34.056,34.333 33.68,90.121 -0.839,124.361c-2.925,2.903 -6.746,4.352 -10.564,4.352z" id="svg_109"/>
    <path stroke="null" fill="#9CA2B5" d="m2449.10182,1865.702c-3.859,0 -7.717,-1.479 -10.649,-4.437c-5.834,-5.882 -5.796,-15.379 0.086,-21.213c43.251,-42.901 43.792,-112.733 1.206,-155.666c-5.834,-5.882 -5.796,-15.379 0.086,-21.213s15.378,-5.795 21.213,0.086c54.235,54.678 53.617,143.541 -1.378,198.092c-2.925,2.902 -6.745,4.351 -10.564,4.351z" id="svg_108"/>
    <path stroke="null" fill="#707789" d="m2286.21682,1688.414l-138.904,0c-8.284,0 -15,-6.716 -15,-15s6.716,-15 15,-15l138.903,0c8.284,0 15,6.716 15,15s-6.715,15 -14.999,15z" id="svg_107"/>
    <path stroke="null" fill="#707789" d="m2216.76382,1746.826l-63.745,0c-8.284,0 -15,-6.716 -15,-15s6.716,-15 15,-15l63.745,0c8.284,0 15,6.716 15,15s-6.715,15 -15,15z" id="svg_106"/>
    <path stroke="null" fill="#9BC5FF" d="m2166.29982,1825.524l-82.061,0c-8.284,0 -15,6.716 -15,15l0,54.893c0,28.603 23.187,51.79 51.79,51.79l60.271,0l0,-106.683c0,-8.285 -6.716,-15 -15,-15z" id="svg_105"/>
   </g>
  </g>
  <g stroke="null" id="svg_140">
   <g stroke="null" transform="matrix(0.46674710771046357,0,0,0.5186433128706981,-694.539996444917,-586.3499696928848) " id="svg_120">
    <path stroke="null" id="svg_121" fill="#6dc54a" d="m2803.0722,1523.59516c0,121.946 -89.094,223.083 -205.74,241.871c-15.974,-67.742 -76.436,-115.606 -146.036,-115.606l-103.224,0c-22.219,-36.874 -35,-80.077 -35,-126.265c0,-135.181 109.482,-244.792 244.615,-245c135.042,-0.207 245.385,109.958 245.385,245z"/>
    <path stroke="null" id="svg_122" fill="#97d57e" d="m2531.3512,1656.64116l-57.433,-127.677c-3.398,-7.555 -0.029,-16.435 7.526,-19.833l191.516,-86.149c7.555,-3.398 16.435,-0.029 19.833,7.526l57.433,127.677c3.398,7.555 0.029,16.435 -7.526,19.833l-191.516,86.149c-7.555,3.399 -16.435,0.029 -19.833,-7.526z"/>
    <path stroke="null" id="svg_123" fill="#c0e6b1" d="m2548.1402,1676.05316l-32.304,-136.222c-1.912,-8.061 3.073,-16.145 11.134,-18.056l204.333,-48.457c8.061,-1.912 16.145,3.073 18.056,11.134l32.304,136.222c1.912,8.061 -3.073,16.145 -11.134,18.056l-204.333,48.457c-8.06,1.911 -16.144,-3.074 -18.056,-11.134z"/>
    <path stroke="null" id="svg_124" fill="#453d83" d="m2417.0722,1267.59516c-8.284,0 -15,6.716 -15,15l0,396.919c0,12.972 -15.931,19.1 -24.694,9.536c-11.014,-12.022 -20.844,-25.147 -29.306,-39.19l0,-292.265l-3,0c-4.418,0 -8,-3.582 -8,-8l0,-34c0,-4.418 3.582,-8 8,-8l3,0l0,-25c0,-8.284 6.716,-15 15,-15l54,0z"/>
    <path stroke="null" id="svg_125" fill="#5f55af" d="m2598.0722,1357.59516l0,20l1,0c4.418,0 8,3.582 8,8l0,34c0,4.418 -3.582,8 -8,8l-1,0l0,337c-0.267,0.315 -0.473,0.557 -0.74,0.871c-12.783,2.059 -25.897,3.129 -39.26,3.129c-62.103,0 -118.81,-23.107 -161.991,-61.192c-5.702,-5.029 -9.009,-12.237 -9.009,-19.84l0,-404.968c0,-8.284 6.716,-15 15,-15l181,0c8.284,0 15,6.716 15,15l0,25l1,0c4.418,0 8,3.582 8,8l0,34c0,4.418 -3.582,8 -8,8l-1,0z"/>
    <path stroke="null" id="svg_126" fill="#fff5f5" d="m2569.0722,1377.59516l0,315c0,8.284 -6.716,15 -15,15l-157.773,0c-6.749,-5.938 -13.168,-12.242 -19.227,-18.88l0,-311.12c0,-8.284 6.716,-15 15,-15l162,0c8.284,0 15,6.716 15,15z"/>
    <path stroke="null" id="svg_127" fill="#ffc14f" d="m2377.0722,1377.59516l0,-45c0,-8.284 6.716,-15 15,-15l162,0c8.284,0 15,6.716 15,15l0,45l-192,0z"/>
    <path stroke="null" id="svg_128" fill="#19305c" d="m2500.5722,1300.09516l-26,0c-4.142,0 -7.5,-3.358 -7.5,-7.5c0,-4.142 3.358,-7.5 7.5,-7.5l26,0c4.142,0 7.5,3.358 7.5,7.5c0,4.142 -3.358,7.5 -7.5,7.5zm-47.5,-7.5c0,-4.142 -3.358,-7.5 -7.5,-7.5c-4.142,0 -7.5,3.358 -7.5,7.5c0,4.142 3.358,7.5 7.5,7.5c4.142,0 7.5,-3.358 7.5,-7.5zm34,435l-30,0c-7.261,0 -13.317,5.16 -14.702,12.012c13.582,7.29 27.931,13.337 42.894,17.988l1.808,0c8.284,0 15,-6.716 15,-15c0,-8.284 -6.716,-15 -15,-15z"/>
    <path stroke="null" id="svg_129" fill="#f29500" d="m2494.0722,1355.59516l-84,0c-4.418,0 -8,-3.582 -8,-8c0,-4.418 3.582,-8 8,-8l84,0c4.418,0 8,3.582 8,8c0,4.418 -3.582,8 -8,8z"/>
    <path stroke="null" id="svg_130" fill="#f44545" d="m2527.0722,1497.59516l-110,0c-8.284,0 -15,-6.716 -15,-15l0,-60c0,-8.284 6.716,-15 15,-15l110,0c8.284,0 15,6.716 15,15l0,60c0,8.284 -6.716,15 -15,15z"/>
    <path stroke="null" id="svg_131" fill="#c50048" d="m2442.0722,1429.59516c0,4.418 -3.582,8 -8,8l-14,0c-4.418,0 -8,-3.582 -8,-8s3.582,-8 8,-8l14,0c4.418,0 8,3.582 8,8zm32,-8l-14,0c-4.418,0 -8,3.582 -8,8s3.582,8 8,8l14,0c4.418,0 8,-3.582 8,-8s-3.582,-8 -8,-8zm50,0l-24,0c-4.418,0 -8,3.582 -8,8c0,4.418 3.582,8 8,8l24,0c4.418,0 8,-3.582 8,-8c0,-4.418 -3.582,-8 -8,-8z"/>
    <path stroke="null" id="svg_132" fill="#c8e2fd" d="m2464.0722,1620.59516l-54,0c-4.418,0 -8,-3.582 -8,-8c0,-4.418 3.582,-8 8,-8l54,0c4.418,0 8,3.582 8,8c0,4.418 -3.582,8 -8,8zm105,-83l-192,0l0,50l192,0l0,-50zm0,150l-192,0l0,-50l192,0l0,50z"/>
    <path stroke="null" id="svg_133" fill="#86befb" d="m2494.0722,1570.59516l-84,0c-4.418,0 -8,-3.582 -8,-8c0,-4.418 3.582,-8 8,-8l84,0c4.418,0 8,3.582 8,8c0,4.418 -3.582,8 -8,8zm-2,92c0,-4.418 -3.582,-8 -8,-8l-74,0c-4.418,0 -8,3.582 -8,8c0,4.418 3.582,8 8,8l74,0c4.418,0 8,-3.582 8,-8z"/>
    <path stroke="null" id="svg_134" fill="#ffc14f" d="m2772.0722,1749.59516l-220,0c-16.569,0 -30,-13.431 -30,-30l0,-154c0,-16.569 13.431,-30 30,-30l220,0c16.569,0 30,13.431 30,30l0,154c0,16.569 -13.431,30 -30,30z"/>
    <path stroke="null" id="svg_135" fill="#ffa90b" d="m2586.4792,1749.59516l-34.407,0c-16.569,0 -30,-13.432 -30,-30l0,-154c0,-16.568 13.431,-30 30,-30l34.407,0c-16.569,0 -30,13.432 -30,30l0,154c0,16.568 13.431,30 30,30z"/>
    <path stroke="null" id="svg_136" fill="#f44545" d="m2814.0722,1642.59516c0,16.569 -13.431,30 -30,30l-102,0c-16.569,0 -30,-13.431 -30,-30c0,-16.569 13.431,-30 30,-30l102,0c16.569,0 30,13.431 30,30z"/>
    <path stroke="null" id="svg_137" fill="#c50048" d="m2712.0722,1672.59516l-30,0c-16.569,0 -30,-13.432 -30,-30c0,-16.568 13.431,-30 30,-30l30,0c-16.569,0 -30,13.432 -30,30c0,16.568 13.431,30 30,30z"/>
    <path stroke="null" id="svg_138" fill="#ffe7c0" d="m2482.0722,1472.59516c0,8.284 -6.716,15 -15,15s-15,-6.716 -15,-15s6.716,-15 15,-15s15,6.716 15,15z"/>
    <path stroke="null" id="svg_139" fill="#fff36c" d="m2442.0722,1472.59516c0,8.284 -6.716,15 -15,15s-15,-6.716 -15,-15s6.716,-15 15,-15s15,6.716 15,15zm360,170c0,8.284 -6.716,15 -15,15s-15,-6.716 -15,-15s6.716,-15 15,-15s15,6.716 15,15z"/>
   </g>
  </g>
 </g>
</svg>