<svg id="Capa_1" enable-background="new 0 0 510 510" height="512" viewBox="0 0 510 510" width="512" xmlns="http://www.w3.org/2000/svg"><g><path d="m205 75h30v30h-30z"/><path d="m265 75h30v30h-30z"/><path d="m400 135h-45v-135h-210v135h-45v135h-75v30h75v60c0 82.71 67.29 150 150 150s150-67.29 150-150v-60h85v-30h-85zm-225-105h150v105h-150zm195 330c0 66.168-53.832 120-120 120s-120-53.832-120-120v-60h30v-30h-30v-105h240v105h-35v30h35z"/><path d="m250 210c-30.327 0-55 24.673-55 55h30c0-13.785 11.215-25 25-25s25 11.215 25 25v5c0 7.827-3.738 15.304-10 20l-30 22.5v47.5h30v-32.5l18-13.5c13.775-10.332 22-26.78 22-44v-5c0-30.327-24.673-55-55-55z"/><path d="m235 390h30v30h-30z"/><path d="m55 90h60v-30h-90v90h30z"/><path d="m395 60v30h60v60h30v-90z"/><path d="m445 480h-60v30h90v-90h-30z"/><path d="m55 420h-30v90h90v-30h-60z"/></g></svg>